<?xml version="1.0" encoding="UTF-8"?>
<!-- Created with Inkscape (http://www.inkscape.org/) -->
<svg width="120" height="120" version="1.1" viewBox="0 0 31.75 31.75" xmlns="http://www.w3.org/2000/svg">
 <g transform="scale(.98553 1.0147)" fill="#fff" stroke-width=".070005" aria-label="f(x)">
  <path d="m4.5274 27.774c0.40703-1.2981 0.8066-2.4737 1.1987-3.5268 0.39042-1.0414 0.81395-1.9709 1.2705-2.7884 0.45492-0.80586 0.96232-1.4992 1.5222-2.0801 0.55018-0.58115 1.1877-1.0547 1.9126-1.4207 0.71514-0.36622 1.533-0.63027 2.4536-0.79214 0.92062-0.16187 1.9788-0.22647 3.1746-0.19379l6.2558 0.05699 2.8954 0.02521-0.14673 1.7683-6.9648 5.7013-0.54782-0.99692 4.0726-4.1847-6.2704-0.05739c-0.82414-0.0077-1.5466-0.0014-2.19 0.06289-0.65475 0.07562-1.2415 0.22324-1.7604 0.44286-0.53021 0.231-1.0038 0.54537-1.4209 0.94312-0.42839 0.40913-0.82455 0.93603-1.1885 1.5807-0.37529 0.65607-0.73943 1.441-1.0924 2.3549-0.36437 0.92524-0.74191 2.0138-1.1327 3.2656z"/>
  <path d="m13.832 2.7176c-0.37362 1.2493-0.66312 2.3373-0.86852 3.2639-0.19417 0.91514-0.30375 1.7038-0.32874 2.366-0.01376 0.65072 0.06538 1.1867 0.23742 1.608 0.18328 0.40983 0.45993 0.7398 0.82996 0.98993 0.38127 0.23869 0.86913 0.40936 1.4636 0.51202 0.60567 0.09122 1.3152 0.15131 2.1404 0.15688l5.0907 0.03436-1.3426-4.1804 1.173-0.94989 3.2531 5.8053-0.16359 1.6373-3.6087-0.0044-5.0761-0.03412c-1.2083-0.0081-2.2125-0.12903-3.0298-0.32831-0.81733-0.19929-1.4755-0.49479-1.9746-0.8865-0.48929-0.39156-0.83339-0.88537-1.0323-1.4814-0.18912-0.5959-0.26653-1.3004-0.23223-2.1135 0.03577-0.82473 0.17347-1.7582 0.41312-2.8005 0.2411-1.0539 0.55629-2.2286 0.94555-3.5241z"/>
 </g>
</svg>
