<?xml version="1.0" encoding="UTF-8"?>
<!-- Created with Inkscape (http://www.inkscape.org/) -->
<svg width="120" height="120" version="1.1" viewBox="0 0 31.75 31.75" xmlns="http://www.w3.org/2000/svg">
 <g transform="scale(.98553 1.0147)" stroke-width=".26458" aria-label="f(x)">
  <g transform="scale(1.0208 .97962)" fill="#fff" stroke-width=".070005" aria-label="xâ‡">
   <path d="m8.6857 15.741 1.9128-1.9363q0.31684-0.31684 0.52807-0.61022 0.21123-0.30511 0.2699-0.62195 0.05868-0.2699-0.10561-0.44593-0.16429-0.17602-0.57501-0.25817l0.11735-0.57501h3.8373l-0.11735 0.57501q-0.4694 0.12908-1.0092 0.5046t-1.373 1.2087l-3.0276 2.9807 1.9597 3.6026q0.42246 0.7745 0.79797 1.1852t0.79797 0.58674l-0.11735 0.57501h-4.7174l0.11735-0.57501q0.99747-0.11735 1.1148-0.72756 0.04694-0.24643 0.011735-0.4694-0.035205-0.22296-0.19949-0.51634l-1.2322-2.3705-2.2766 2.347q-0.24643 0.25817-0.39899 0.48113-0.15255 0.21123-0.21123 0.48113-0.058675 0.31684 0.11735 0.52807 0.17602 0.19949 0.63369 0.24643l-0.11735 0.57501h-3.9195l0.11735-0.57501q0.41072-0.14082 0.76277-0.35205t0.7393-0.53981q0.39899-0.34031 1.0561-0.98573l3.0393-3.0276-1.8072-3.4266q-0.37552-0.7041-0.62195-1.0209-0.2347-0.31684-0.4694-0.48113-0.22296-0.16429-0.4694-0.2347l0.11735-0.57501h4.6001l-0.11735 0.57501q-0.95053 0.14082-1.0679 0.72756-0.058675 0.2699 0.011735 0.53981t0.2699 0.59848z"/>
   <path d="m29.089 19.564h-10.835l1.1659 1.8295-0.72042 0.52136-3.7158-4.6353 0.12323-0.60667 5.5643-4.6353 0.51188 0.52136-1.8769 1.8105h10.825l-0.25594 1.2607h-11.792l-1.3555 1.346 0.80573 1.3271h11.811z"/>
  </g>
 </g>
</svg>
