<?xml version="1.0" encoding="UTF-8" standalone="no"?>
<!-- Created with Inkscape (http://www.inkscape.org/) -->

<svg
   width="120"
   height="120"
   version="1.1"
   viewBox="0 0 31.75 31.75"
   id="svg33883"
   xmlns="http://www.w3.org/2000/svg"
   xmlns:svg="http://www.w3.org/2000/svg">
  <defs
     id="defs33887">
    <marker
       style="overflow:visible"
       id="SquareM"
       refX="0.0"
       refY="0.0"
       orient="auto">
      <path
         transform="scale(0.4)"
         style="fill-rule:evenodd;fill:context-stroke;stroke:context-stroke;stroke-width:1.0pt"
         d="M -5.0,-5.0 L -5.0,5.0 L 5.0,5.0 L 5.0,-5.0 L -5.0,-5.0 z "
         id="path71424" />
    </marker>
    <marker
       style="overflow:visible"
       id="marker72197"
       refX="0.0"
       refY="0.0"
       orient="auto">
      <path
         transform="scale(0.4) translate(7.4, 1)"
         style="fill-rule:evenodd;fill:context-stroke;stroke:context-stroke;stroke-width:1.0pt"
         d="M -2.5,-1.0 C -2.5,1.7600000 -4.7400000,4.0 -7.5,4.0 C -10.260000,4.0 -12.5,1.7600000 -12.5,-1.0 C -12.5,-3.7600000 -10.260000,-6.0 -7.5,-6.0 C -4.7400000,-6.0 -2.5,-3.7600000 -2.5,-1.0 z "
         id="path72195" />
    </marker>
    <marker
       style="overflow:visible"
       id="DotM"
       refX="0.0"
       refY="0.0"
       orient="auto">
      <path
         transform="scale(0.4) translate(7.4, 1)"
         style="fill-rule:evenodd;fill:context-stroke;stroke:context-stroke;stroke-width:1.0pt"
         d="M -2.5,-1.0 C -2.5,1.7600000 -4.7400000,4.0 -7.5,4.0 C -10.260000,4.0 -12.5,1.7600000 -12.5,-1.0 C -12.5,-3.7600000 -10.260000,-6.0 -7.5,-6.0 C -4.7400000,-6.0 -2.5,-3.7600000 -2.5,-1.0 z "
         id="path71415" />
    </marker>
    <marker
       style="overflow:visible"
       id="Arrow2Sstart"
       refX="0.0"
       refY="0.0"
       orient="auto">
      <path
         transform="scale(0.3) translate(-2.3,0)"
         d="M 8.7185878,4.0337352 L -2.2072895,0.016013256 L 8.7185884,-4.0017078 C 6.9730900,-1.6296469 6.9831476,1.6157441 8.7185878,4.0337352 z "
         style="fill-rule:evenodd;fill:context-stroke;stroke-width:0.62500000;stroke-linejoin:round"
         id="path71381" />
    </marker>
    <marker
       style="overflow:visible"
       id="Arrow2Mstart"
       refX="0.0"
       refY="0.0"
       orient="auto">
      <path
         transform="scale(0.6) translate(0,0)"
         d="M 8.7185878,4.0337352 L -2.2072895,0.016013256 L 8.7185884,-4.0017078 C 6.9730900,-1.6296469 6.9831476,1.6157441 8.7185878,4.0337352 z "
         style="fill-rule:evenodd;fill:context-stroke;stroke-width:0.62500000;stroke-linejoin:round"
         id="path71375" />
    </marker>
    <marker
       style="overflow:visible"
       id="Tail"
       refX="0.0"
       refY="0.0"
       orient="auto">
      <g
         transform="scale(-1.2)"
         id="g71399">
        <path
           style="fill:none;fill-rule:evenodd;stroke:context-stroke;stroke-width:0.8;stroke-linecap:round"
           d="M -3.8048674,-3.9585227 L 0.54352094,0"
           id="path71387" />
        <path
           style="fill:none;fill-rule:evenodd;stroke:context-stroke;stroke-width:0.8;stroke-linecap:round"
           d="M -1.2866832,-3.9585227 L 3.0617053,0"
           id="path71389" />
        <path
           style="fill:none;fill-rule:evenodd;stroke:context-stroke;stroke-width:0.8;stroke-linecap:round"
           d="M 1.3053582,-3.9585227 L 5.6537466,0"
           id="path71391" />
        <path
           style="fill:none;fill-rule:evenodd;stroke:context-stroke;stroke-width:0.8;stroke-linecap:round"
           d="M -3.8048674,4.1775838 L 0.54352094,0.21974226"
           id="path71393" />
        <path
           style="fill:none;fill-rule:evenodd;stroke:context-stroke;stroke-width:0.8;stroke-linecap:round"
           d="M -1.2866832,4.1775838 L 3.0617053,0.21974226"
           id="path71395" />
        <path
           style="fill:none;fill-rule:evenodd;stroke:context-stroke;stroke-width:0.8;stroke-linecap:round"
           d="M 1.3053582,4.1775838 L 5.6537466,0.21974226"
           id="path71397" />
      </g>
    </marker>
    <marker
       style="overflow:visible;"
       id="Arrow1Send"
       refX="0.0"
       refY="0.0"
       orient="auto">
      <path
         transform="scale(0.2) rotate(180) translate(6,0)"
         style="fill-rule:evenodd;fill:context-stroke;stroke:context-stroke;stroke-width:1.0pt;"
         d="M 0.0,0.0 L 5.0,-5.0 L -12.5,0.0 L 5.0,5.0 L 0.0,0.0 z "
         id="path71366" />
    </marker>
  </defs>
  <g
     id="g173487"
     transform="translate(1.5264423,-0.38161058)">
    <path
       id="rect171879"
       style="fill:none;stroke:#f9f9f9;stroke-width:2.11667;stroke-linecap:square"
       d="m 22.286058,16.188554 -0.07632,7.920966 c -0.0045,0.469665 -0.378123,0.84781 -0.847809,0.84781 H 7.1062235 c -0.4696866,0 -0.8478097,-0.378123 -0.8478097,-0.84781 V 10.159107 c 0,-0.4696865 0.3781231,-0.8478096 0.8478097,-0.8478096 H 15.71409" />
    <path
       style="fill:none;stroke:#ffffff;stroke-width:2.11667;stroke-linecap:butt;stroke-linejoin:miter;stroke-miterlimit:4;stroke-dasharray:none;stroke-opacity:1"
       d="m 14.043269,17.248798 c 2.849365,-2.722162 5.698724,-5.444316 8.548077,-8.1664664"
       id="path172012" />
    <path
       style="fill:#f2f2f2;stroke:#ffffff;stroke-width:8;stroke-linecap:square;stroke-linejoin:miter;stroke-miterlimit:4;stroke-dasharray:none;stroke-opacity:1"
       id="path172093"
       d="m 51.514379,9.5303092 -13.028758,0 L 45,-1.7529259 Z"
       transform="matrix(0.18009402,0.19383107,-0.19383107,0.18009402,15.605372,-0.45010415)" />
  </g>
</svg>
