<?xml version="1.0" encoding="UTF-8"?>
<!-- Created with Inkscape (http://www.inkscape.org/) -->
<svg width="120" height="120" version="1.1" viewBox="0 0 31.75 31.75" xmlns="http://www.w3.org/2000/svg">
 <g transform="scale(.98553 1.0147)" fill="#fff" stroke-width=".070005" aria-label="f(x)">
  <path d="m17.117 6.2373h-1.0859q0.01054-0.44721-0.18976-0.72547-0.18976-0.27826-0.61146-0.27826-1.128 0-1.8555 1.7292-0.68526 1.6497-1.9082 7.3739h3.3209l-0.28465 1.3217h-3.3314q-1.0332 4.5516-2.5513 7.3441-1.6341 3.0112-4.1432 3.0112-0.50604 0-0.87503-0.07951-0.35844-0.07951-0.67472-0.25839l0.54821-1.9578h0.99099q0.031627 0.47702 0.23194 0.78509 0.20031 0.30808 0.70635 0.30808 1.107 0 1.8555-2.1665 0.73797-2.1565 1.613-6.3006l0.1476-0.68571h-3.2893l0.28465-1.3217h3.3103q1.1913-4.9193 2.5829-7.4037 1.6657-2.9516 4.2275-2.9516 0.18976 0 0.39007 0.029813 0.21085 0.019876 0.41116 0.069565 0.20031 0.039752 0.37953 0.099379 0.18976 0.059628 0.33736 0.12919z"/>
  <path d="m16.109 18.783q-0.44709 2.1073-0.01916 3.474 0.42793 1.3667 1.8075 1.8303l-0.24909 0.4636q-1.7756-0.4636-2.4462-1.9989-0.67064-1.5293-0.21077-3.7088 0.45986-2.1735 1.7884-3.7088 1.3285-1.5413 3.2893-2.0049l0.07664 0.4636q-1.5968 0.4636-2.5995 1.8122-1.0028 1.3426-1.4371 3.3776z"/>
  <path d="m22.694 18.356 1.0411-0.99342q0.17245-0.16256 0.28742-0.31308 0.11497-0.15654 0.1469-0.3191 0.03194-0.13848-0.05748-0.22879-0.08942-0.09031-0.31296-0.13246l0.06387-0.29502h2.0886l-0.06387 0.29502q-0.25548 0.06622-0.54928 0.25889-0.2938 0.19266-0.74728 0.62014l-1.6478 1.5293 1.0666 1.8484q0.22993 0.39737 0.43432 0.60809 0.20438 0.21072 0.43432 0.30104l-0.06387 0.29502h-2.5676l0.06387-0.29502q0.5429-0.06021 0.60677-0.37328 0.02555-0.12644 0.0064-0.24083-0.01916-0.11439-0.10858-0.26491l-0.67064-1.2162-1.2391 1.2041q-0.13413 0.13246-0.21716 0.24685-0.08303 0.10837-0.11497 0.24685-0.03194 0.16256 0.06387 0.27093 0.09581 0.10235 0.3449 0.12644l-0.06387 0.29502h-2.1333l0.06387-0.29502q0.22354-0.07224 0.41516-0.18062 0.19161-0.10837 0.40238-0.27695 0.21716-0.1746 0.57483-0.50574l1.6542-1.5534-0.9836-1.7581q-0.20438-0.36124-0.33851-0.5238-0.12774-0.16256-0.25548-0.24685-0.12135-0.08429-0.25548-0.12041l0.06387-0.29502h2.5037l-0.06387 0.29502q-0.51735 0.07224-0.58122 0.37329-0.03194 0.13848 0.0064 0.27695 0.03833 0.13848 0.1469 0.30706z"/>
  <path d="m28.781 18.783q0.43432-2.035 0-3.3776-0.42793-1.3486-1.8267-1.8122l0.26826-0.4636q1.7692 0.4636 2.4398 2.0049 0.67064 1.5353 0.21077 3.7088-0.45986 2.1795-1.782 3.7088-1.3221 1.5353-3.2893 1.9989l-0.05748-0.4636q1.5712-0.4636 2.5804-1.8303 1.0091-1.3667 1.4562-3.474z"/>
 </g>
</svg>
