<?xml version="1.0" encoding="UTF-8" standalone="no"?>
<!-- Created with Inkscape (http://www.inkscape.org/) -->

<svg
   width="120"
   height="120"
   version="1.1"
   viewBox="0 0 31.75 31.75"
   id="svg33883"
   xmlns="http://www.w3.org/2000/svg"
   xmlns:svg="http://www.w3.org/2000/svg">
  <defs
     id="defs33887">
    <marker
       style="overflow:visible"
       id="SquareM"
       refX="0.0"
       refY="0.0"
       orient="auto">
      <path
         transform="scale(0.4)"
         style="fill-rule:evenodd;fill:context-stroke;stroke:context-stroke;stroke-width:1.0pt"
         d="M -5.0,-5.0 L -5.0,5.0 L 5.0,5.0 L 5.0,-5.0 L -5.0,-5.0 z "
         id="path71424" />
    </marker>
    <marker
       style="overflow:visible"
       id="marker72197"
       refX="0.0"
       refY="0.0"
       orient="auto">
      <path
         transform="scale(0.4) translate(7.4, 1)"
         style="fill-rule:evenodd;fill:context-stroke;stroke:context-stroke;stroke-width:1.0pt"
         d="M -2.5,-1.0 C -2.5,1.7600000 -4.7400000,4.0 -7.5,4.0 C -10.260000,4.0 -12.5,1.7600000 -12.5,-1.0 C -12.5,-3.7600000 -10.260000,-6.0 -7.5,-6.0 C -4.7400000,-6.0 -2.5,-3.7600000 -2.5,-1.0 z "
         id="path72195" />
    </marker>
    <marker
       style="overflow:visible"
       id="DotM"
       refX="0.0"
       refY="0.0"
       orient="auto">
      <path
         transform="scale(0.4) translate(7.4, 1)"
         style="fill-rule:evenodd;fill:context-stroke;stroke:context-stroke;stroke-width:1.0pt"
         d="M -2.5,-1.0 C -2.5,1.7600000 -4.7400000,4.0 -7.5,4.0 C -10.260000,4.0 -12.5,1.7600000 -12.5,-1.0 C -12.5,-3.7600000 -10.260000,-6.0 -7.5,-6.0 C -4.7400000,-6.0 -2.5,-3.7600000 -2.5,-1.0 z "
         id="path71415" />
    </marker>
    <marker
       style="overflow:visible"
       id="Arrow2Sstart"
       refX="0.0"
       refY="0.0"
       orient="auto">
      <path
         transform="scale(0.3) translate(-2.3,0)"
         d="M 8.7185878,4.0337352 L -2.2072895,0.016013256 L 8.7185884,-4.0017078 C 6.9730900,-1.6296469 6.9831476,1.6157441 8.7185878,4.0337352 z "
         style="fill-rule:evenodd;fill:context-stroke;stroke-width:0.62500000;stroke-linejoin:round"
         id="path71381" />
    </marker>
    <marker
       style="overflow:visible"
       id="Arrow2Mstart"
       refX="0.0"
       refY="0.0"
       orient="auto">
      <path
         transform="scale(0.6) translate(0,0)"
         d="M 8.7185878,4.0337352 L -2.2072895,0.016013256 L 8.7185884,-4.0017078 C 6.9730900,-1.6296469 6.9831476,1.6157441 8.7185878,4.0337352 z "
         style="fill-rule:evenodd;fill:context-stroke;stroke-width:0.62500000;stroke-linejoin:round"
         id="path71375" />
    </marker>
    <marker
       style="overflow:visible"
       id="Tail"
       refX="0.0"
       refY="0.0"
       orient="auto">
      <g
         transform="scale(-1.2)"
         id="g71399">
        <path
           style="fill:none;fill-rule:evenodd;stroke:context-stroke;stroke-width:0.8;stroke-linecap:round"
           d="M -3.8048674,-3.9585227 L 0.54352094,0"
           id="path71387" />
        <path
           style="fill:none;fill-rule:evenodd;stroke:context-stroke;stroke-width:0.8;stroke-linecap:round"
           d="M -1.2866832,-3.9585227 L 3.0617053,0"
           id="path71389" />
        <path
           style="fill:none;fill-rule:evenodd;stroke:context-stroke;stroke-width:0.8;stroke-linecap:round"
           d="M 1.3053582,-3.9585227 L 5.6537466,0"
           id="path71391" />
        <path
           style="fill:none;fill-rule:evenodd;stroke:context-stroke;stroke-width:0.8;stroke-linecap:round"
           d="M -3.8048674,4.1775838 L 0.54352094,0.21974226"
           id="path71393" />
        <path
           style="fill:none;fill-rule:evenodd;stroke:context-stroke;stroke-width:0.8;stroke-linecap:round"
           d="M -1.2866832,4.1775838 L 3.0617053,0.21974226"
           id="path71395" />
        <path
           style="fill:none;fill-rule:evenodd;stroke:context-stroke;stroke-width:0.8;stroke-linecap:round"
           d="M 1.3053582,4.1775838 L 5.6537466,0.21974226"
           id="path71397" />
      </g>
    </marker>
    <marker
       style="overflow:visible;"
       id="Arrow1Send"
       refX="0.0"
       refY="0.0"
       orient="auto">
      <path
         transform="scale(0.2) rotate(180) translate(6,0)"
         style="fill-rule:evenodd;fill:context-stroke;stroke:context-stroke;stroke-width:1.0pt;"
         d="M 0.0,0.0 L 5.0,-5.0 L -12.5,0.0 L 5.0,5.0 L 0.0,0.0 z "
         id="path71366" />
    </marker>
  </defs>
  <g
     aria-label="Log"
     transform="matrix(0.99104019,0,-0.23921152,1.0090408,0,0)"
     id="text146658"
     style="font-size:15.1457px;line-height:1.25;fill:#f9f9f9;stroke-width:0.264583">
    <path
       d="m 11.286129,19.24355 h 1.937585 q 0.318001,0 0.532466,-0.03698 0.214466,-0.03698 0.362373,-0.11093 0.155302,-0.08135 0.273628,-0.214465 0.125721,-0.140512 0.236652,-0.362373 0.11093,-0.221861 0.20707,-0.554652 0.103535,-0.340187 0.251442,-1.013165 h 0.746932 L 15.68637,19.923923 H 9.0379395 v -0.362372 q 0.4585124,-0.118326 0.613815,-0.258838 0.1553026,-0.147907 0.1996748,-0.41414 0.051768,-0.266233 0.051768,-0.81349 v -6.396988 q 0,-0.51028 -0.036977,-0.739536 Q 9.8292432,10.701908 9.7404988,10.576186 9.6591499,10.44307 9.518638,10.369116 9.3781261,10.287767 9.0379395,10.191628 V 9.829255 h 3.1134475 v 0.362373 q -0.325396,0.08874 -0.465908,0.162698 -0.133117,0.06656 -0.221861,0.184884 -0.08874,0.118325 -0.133116,0.362372 -0.04437,0.244047 -0.04437,0.776513 z"
       style="font-family:'Cambria Math';-inkscape-font-specification:'Cambria Math'"
       id="path159968" />
    <path
       d="m 20.204936,20.042249 q -1.538236,0 -2.351725,-0.902234 -0.806095,-0.909629 -0.806095,-2.684516 0,-1.220235 0.421536,-2.063306 0.428931,-0.843071 1.168467,-1.249816 0.739536,-0.41414 1.686142,-0.41414 1.582608,0 2.396097,0.92442 0.81349,0.917025 0.81349,2.640144 0,1.22763 -0.406745,2.070701 -0.406745,0.843071 -1.153676,1.264607 -0.746932,0.41414 -1.767491,0.41414 z m -1.760097,-3.742053 q 0,1.523445 0.480699,2.34433 0.488094,0.81349 1.390328,0.81349 0.495489,0 0.843071,-0.236652 0.347582,-0.244047 0.562048,-0.650792 0.22186,-0.406745 0.318,-0.939211 0.09614,-0.539861 0.09614,-1.124095 0,-1.087118 -0.244047,-1.804468 -0.236652,-0.71735 -0.650792,-1.050141 -0.41414,-0.340187 -0.946606,-0.340187 -0.894839,0 -1.375537,0.776513 -0.473304,0.776513 -0.473304,2.211213 z"
       style="font-family:'Cambria Math';-inkscape-font-specification:'Cambria Math'"
       id="path159970" />
    <path
       d="m 31.66035,13.600889 -1.368142,-0.05177 -0.06656,0.08135 q 0.229256,0.229256 0.362372,0.628606 0.133117,0.391954 0.133117,0.850466 0,1.205444 -0.746932,1.863631 -0.739536,0.650792 -2.107678,0.650792 -0.613815,0 -1.057536,-0.155303 -0.562048,0.428931 -0.562048,0.843072 0,0.273628 0.103535,0.41414 0.110931,0.140512 0.354978,0.199675 0.251442,0.05916 0.754327,0.05916 h 1.774886 q 0.783909,0 1.279398,0.244047 0.495489,0.244046 0.702559,0.658187 0.214466,0.406745 0.214466,0.954001 0,0.695164 -0.39935,1.235026 -0.399349,0.547256 -1.153676,0.850466 -0.754327,0.30321 -1.760096,0.30321 -0.746932,0 -1.368142,-0.08874 -0.613815,-0.08874 -1.057537,-0.30321 -0.436326,-0.20707 -0.680373,-0.554652 -0.236652,-0.340187 -0.236652,-0.857862 0,-0.465908 0.310605,-0.850467 0.310606,-0.377163 0.880048,-0.665582 -0.347582,-0.140512 -0.547256,-0.41414 -0.199675,-0.273629 -0.199675,-0.643397 0,-0.421536 0.236652,-0.769118 0.236651,-0.354977 0.835675,-0.806094 -0.532466,-0.310605 -0.813489,-0.843071 -0.273629,-0.532466 -0.273629,-1.212839 0,-0.636002 0.20707,-1.101909 0.214466,-0.473303 0.584234,-0.776513 0.377163,-0.310605 0.887443,-0.458513 0.51028,-0.155302 1.101909,-0.155302 0.532466,0 1.057537,0.125721 h 2.617958 z m -5.132381,1.501259 q 0,0.92442 0.377163,1.427305 0.377164,0.502884 1.087119,0.502884 0.377163,0 0.643396,-0.140512 0.266233,-0.147907 0.428931,-0.399349 0.170093,-0.251443 0.244047,-0.576838 0.08135,-0.332792 0.08135,-0.695164 0,-0.650792 -0.184884,-1.087119 -0.184884,-0.436326 -0.502885,-0.636001 -0.318,-0.20707 -0.732141,-0.20707 -0.702559,0 -1.072327,0.465908 -0.369768,0.465908 -0.369768,1.345956 z m 0.184884,4.940101 q -0.377163,0.281024 -0.569443,0.591629 -0.184884,0.318001 -0.184884,0.71735 0,0.665583 0.525071,0.976188 0.532466,0.318001 1.619584,0.318001 0.665583,0 1.138886,-0.177489 0.480698,-0.177489 0.73214,-0.51028 0.251443,-0.332791 0.251443,-0.776513 0,-0.20707 -0.05177,-0.406745 -0.05177,-0.192279 -0.199675,-0.347582 -0.140511,-0.155303 -0.406744,-0.251442 -0.266233,-0.08874 -0.695164,-0.08874 H 27.77039 q -0.599025,0 -1.057537,-0.04437 z"
       style="font-family:'Cambria Math';-inkscape-font-specification:'Cambria Math'"
       id="path159972" />
  </g>
</svg>
